<?xml version="1.0" standalone="no"?>
<!DOCTYPE svg PUBLIC "-//W3C//DTD SVG 20010904//EN"
 "http://www.w3.org/TR/2001/REC-SVG-20010904/DTD/svg10.dtd">
<svg version="1.0" xmlns="http://www.w3.org/2000/svg"
 width="157.000000pt" height="158.000000pt" viewBox="0 0 157.000000 158.000000"
 preserveAspectRatio="xMidYMid meet">
<metadata>
Created by potrace 1.13, written by Peter Selinger 2001-2015
</metadata>
<g transform="translate(0.000000,158.000000) scale(0.100000,-0.100000)"
fill="#000000" stroke="none">
<path d="M0 790 l0 -790 785 0 785 0 0 790 0 790 -785 0 -785 0 0 -790z m1100
-7 l0 -393 -130 0 -130 0 0 30 0 30 95 0 95 0 0 330 0 330 -95 0 -95 0 0 28
c0 16 2 31 4 33 2 2 61 4 130 4 l126 0 0 -392z m-530 122 l0 -65 -60 0 -60 0
0 65 0 65 60 0 60 0 0 -65z m0 -336 c0 -81 -17 -135 -53 -165 -35 -30 -67 -32
-67 -4 0 11 5 20 11 20 10 0 39 59 39 80 0 5 -11 10 -25 10 -24 0 -25 3 -25
60 l0 60 60 0 60 0 0 -61z"/>
</g>
</svg>
