<?xml version="1.0" standalone="no"?>
<!DOCTYPE svg PUBLIC "-//W3C//DTD SVG 20010904//EN"
 "http://www.w3.org/TR/2001/REC-SVG-20010904/DTD/svg10.dtd">
<svg version="1.0" xmlns="http://www.w3.org/2000/svg"
 width="186.000000pt" height="183.000000pt" viewBox="0 0 186.000000 183.000000"
 preserveAspectRatio="xMidYMid meet">
<metadata>
Created by potrace 1.13, written by Peter Selinger 2001-2015
</metadata>
<g transform="translate(0.000000,183.000000) scale(0.100000,-0.100000)"
fill="#000000" stroke="none">
<path d="M0 915 l0 -915 930 0 930 0 0 915 0 915 -930 0 -930 0 0 -915z m1270
15 l0 -390 -130 0 -130 0 0 30 0 30 95 0 95 0 0 330 0 329 -92 3 -93 3 -3 28
-3 27 130 0 131 0 0 -390z m-530 125 l0 -65 -60 0 -60 0 0 65 0 65 60 0 60 0
0 -65z m0 -331 c0 -82 -18 -140 -52 -169 -36 -31 -68 -33 -68 -5 0 11 5 20 11
20 10 0 39 59 39 80 0 5 -11 10 -25 10 -24 0 -25 3 -25 63 l0 62 60 -3 60 -4
0 -54z"/>
</g>
</svg>
